<?xml version="1.0" encoding="utf-8"?>
<!-- Generator: Adobe Illustrator 16.0.0, SVG Export Plug-In . SVG Version: 6.00 Build 0)  -->
<!DOCTYPE svg PUBLIC "-//W3C//DTD SVG 1.1//EN" "http://www.w3.org/Graphics/SVG/1.1/DTD/svg11.dtd">
<svg version="1.1" id="Capa_1" xmlns="http://www.w3.org/2000/svg" xmlns:xlink="http://www.w3.org/1999/xlink" x="0px" y="0px"
	 width="640px" height="200px" viewBox="0 0 640 200" enable-background="new 0 0 640 200" xml:space="preserve">
<g>
	<path fill="#4F2417" d="M163.74,41.392h5.583v38.562h18.479v4.684H163.74V41.392z"/>
	<path fill="#4F2417" d="M193.835,39.082h5.646v45.556h-5.646V39.082z"/>
	<path fill="#4F2417" d="M226.175,84.638l-0.449-3.914h-0.192c-1.732,2.438-5.069,4.62-9.496,4.62c-6.288,0-9.496-4.427-9.496-8.918
		c0-7.507,6.673-11.614,18.671-11.549v-0.642c0-2.566-0.706-7.187-7.058-7.187c-2.888,0-5.903,0.898-8.085,2.31l-1.283-3.722
		c2.566-1.668,6.288-2.759,10.202-2.759c9.496,0,11.806,6.48,11.806,12.704v11.614c0,2.695,0.129,5.326,0.514,7.443H226.175z
		 M225.341,68.79c-6.16-0.128-13.154,0.962-13.154,6.994c0,3.657,2.438,5.39,5.326,5.39c4.042,0,6.608-2.566,7.507-5.197
		c0.192-0.577,0.321-1.219,0.321-1.796V68.79z M228.164,40.172l-7.828,9.176h-4.043l5.646-9.176H228.164z"/>
	<path fill="#4F2417" d="M239.908,61.988c0-3.208-0.063-5.839-0.256-8.406h4.94l0.256,5.005h0.193
		c1.732-2.952,4.619-5.71,9.752-5.71c4.235,0,7.443,2.566,8.791,6.224h0.128c0.963-1.732,2.182-3.08,3.465-4.042
		c1.861-1.412,3.914-2.182,6.865-2.182c4.106,0,10.202,2.695,10.202,13.474v18.287h-5.518V67.057c0-5.967-2.182-9.561-6.737-9.561
		c-3.208,0-5.711,2.374-6.673,5.133c-0.257,0.77-0.449,1.796-0.449,2.823v19.185h-5.519V66.03c0-4.94-2.182-8.534-6.48-8.534
		c-3.528,0-6.095,2.823-6.993,5.646c-0.321,0.834-0.449,1.796-0.449,2.759v18.736h-5.519V61.988z"/>
	<path fill="#4F2417" d="M310.622,84.638l-0.449-3.914h-0.192c-1.732,2.438-5.069,4.62-9.496,4.62c-6.288,0-9.496-4.427-9.496-8.918
		c0-7.507,6.673-11.614,18.671-11.549v-0.642c0-2.566-0.706-7.187-7.058-7.187c-2.888,0-5.903,0.898-8.085,2.31l-1.283-3.722
		c2.566-1.668,6.288-2.759,10.202-2.759c9.496,0,11.806,6.48,11.806,12.704v11.614c0,2.695,0.129,5.326,0.514,7.443H310.622z
		 M309.788,68.79c-6.16-0.128-13.154,0.962-13.154,6.994c0,3.657,2.438,5.39,5.326,5.39c4.042,0,6.608-2.566,7.507-5.197
		c0.192-0.577,0.321-1.219,0.321-1.796V68.79z"/>
	<path fill="#4F2417" d="M324.354,61.988c0-3.208-0.063-5.839-0.256-8.406h5.004l0.321,5.133h0.128
		c1.54-2.952,5.134-5.839,10.267-5.839c4.299,0,10.972,2.566,10.972,13.218v18.543h-5.646V66.736c0-5.005-1.86-9.175-7.187-9.175
		c-3.721,0-6.608,2.63-7.571,5.774c-0.256,0.706-0.385,1.668-0.385,2.631v18.671h-5.646V61.988z"/>
	<path fill="#4F2417" d="M388.072,68.854c0,11.485-7.956,16.49-15.463,16.49c-8.405,0-14.886-6.16-14.886-15.977
		c0-10.394,6.801-16.49,15.398-16.49C382.041,52.877,388.072,59.357,388.072,68.854z M363.434,69.174
		c0,6.801,3.914,11.935,9.433,11.935c5.39,0,9.432-5.069,9.432-12.063c0-5.261-2.631-11.934-9.304-11.934
		S363.434,63.271,363.434,69.174z"/>
	<path fill="#4F2417" d="M394.428,78.863c1.668,1.091,4.62,2.246,7.442,2.246c4.106,0,6.032-2.053,6.032-4.62
		c0-2.695-1.604-4.17-5.775-5.71c-5.582-1.989-8.213-5.069-8.213-8.79c0-5.005,4.043-9.111,10.716-9.111
		c3.144,0,5.902,0.898,7.635,1.925l-1.411,4.106c-1.219-0.77-3.465-1.796-6.353-1.796c-3.336,0-5.197,1.925-5.197,4.235
		c0,2.566,1.861,3.721,5.903,5.261c5.39,2.053,8.148,4.748,8.148,9.368c0,5.454-4.234,9.304-11.613,9.304
		c-3.4,0-6.545-0.834-8.727-2.117L394.428,78.863z"/>
	<path fill="#4F2417" d="M419.262,58.716c0-2.374,1.604-4.042,3.85-4.042c2.245,0,3.722,1.668,3.785,4.042
		c0,2.246-1.476,3.978-3.85,3.978C420.801,62.694,419.262,60.961,419.262,58.716z M419.262,81.365c0-2.374,1.604-4.042,3.85-4.042
		c2.245,0,3.722,1.668,3.785,4.042c0,2.246-1.476,3.978-3.85,3.978C420.801,85.343,419.262,83.611,419.262,81.365z"/>
</g>
<g>
	<path fill="#4F2417" d="M254.946,116.509h-16.283l-1.641,10.965c0.984-0.131,1.903-0.263,3.479-0.263
		c3.283,0,6.565,0.723,9.192,2.298c3.349,1.904,6.106,5.581,6.106,10.966c0,8.338-6.632,14.576-15.89,14.576
		c-4.662,0-8.602-1.313-10.637-2.627l1.444-4.398c1.772,1.05,5.253,2.363,9.127,2.363c5.449,0,10.111-3.546,10.111-9.258
		c-0.066-5.516-3.743-9.455-12.278-9.455c-2.43,0-4.334,0.263-5.909,0.46l2.758-20.485h20.419V116.509z"/>
	<path fill="#4F2417" d="M288.632,116.509h-16.283l-1.641,10.965c0.984-0.131,1.903-0.263,3.479-0.263
		c3.283,0,6.565,0.723,9.192,2.298c3.349,1.904,6.106,5.581,6.106,10.966c0,8.338-6.632,14.576-15.89,14.576
		c-4.662,0-8.602-1.313-10.637-2.627l1.444-4.398c1.772,1.05,5.253,2.363,9.127,2.363c5.449,0,10.111-3.546,10.111-9.258
		c-0.066-5.516-3.743-9.455-12.278-9.455c-2.43,0-4.334,0.263-5.909,0.46l2.758-20.485h20.419V116.509z"/>
	<path fill="#4F2417" d="M322.316,116.509h-16.283l-1.642,10.965c0.985-0.131,1.904-0.263,3.48-0.263
		c3.283,0,6.565,0.723,9.192,2.298c3.349,1.904,6.106,5.581,6.106,10.966c0,8.338-6.632,14.576-15.89,14.576
		c-4.662,0-8.602-1.313-10.637-2.627l1.444-4.398c1.772,1.05,5.253,2.363,9.127,2.363c5.449,0,10.111-3.546,10.111-9.258
		c-0.066-5.516-3.743-9.455-12.278-9.455c-2.43,0-4.334,0.263-5.909,0.46l2.758-20.485h20.419V116.509z"/>
	<path fill="#4F2417" d="M359.681,134.434v4.268h-16.218v-4.268H359.681z"/>
	<path fill="#4F2417" d="M402.886,115.721c-1.183-0.065-2.692,0-4.334,0.263c-9.061,1.511-13.854,8.142-14.839,15.167h0.197
		c2.035-2.691,5.581-4.924,10.309-4.924c7.551,0,12.868,5.449,12.868,13.788c0,7.813-5.317,15.036-14.182,15.036
		c-9.127,0-15.102-7.092-15.102-18.188c0-8.404,3.021-15.036,7.223-19.238c3.545-3.479,8.272-5.646,13.656-6.304
		c1.708-0.262,3.152-0.328,4.203-0.328V115.721z M401.244,140.343c0-6.106-3.48-9.783-8.799-9.783c-3.479,0-6.697,2.167-8.272,5.253
		c-0.395,0.656-0.657,1.51-0.657,2.561c0.132,7.025,3.349,12.213,9.39,12.213C397.896,150.586,401.244,146.449,401.244,140.343z"/>
	<path fill="#4F2417" d="M439.919,111.65v3.808l-18.581,38.87h-5.975l18.516-37.754v-0.131h-20.88v-4.793H439.919z"/>
	<path fill="#4F2417" d="M470.257,115.721c-1.183-0.065-2.692,0-4.334,0.263c-9.061,1.511-13.854,8.142-14.839,15.167h0.197
		c2.035-2.691,5.581-4.924,10.309-4.924c7.551,0,12.868,5.449,12.868,13.788c0,7.813-5.317,15.036-14.182,15.036
		c-9.127,0-15.102-7.092-15.102-18.188c0-8.404,3.021-15.036,7.223-19.238c3.545-3.479,8.272-5.646,13.656-6.304
		c1.708-0.262,3.152-0.328,4.203-0.328V115.721z M468.615,140.343c0-6.106-3.48-9.783-8.799-9.783c-3.479,0-6.697,2.167-8.272,5.253
		c-0.395,0.656-0.657,1.51-0.657,2.561c0.132,7.025,3.349,12.213,9.39,12.213C465.267,150.586,468.615,146.449,468.615,140.343z"/>
	<path fill="#4F2417" d="M507.289,111.65v3.808l-18.581,38.87h-5.975l18.516-37.754v-0.131h-20.88v-4.793H507.289z"/>
</g>
<g>
	<g>
		<path fill="#4F2417" d="M208.19,142.411l-6.25-6.248c-2.231-2.232-6.026-1.34-6.918,1.562c-0.67,2.01-2.901,3.125-4.911,2.679
			c-4.463-1.116-10.488-6.919-11.604-11.605c-0.671-2.009,0.668-4.24,2.678-4.91c2.901-0.893,3.793-4.687,1.563-6.919l-6.249-6.249
			c-1.785-1.563-4.465-1.563-6.026,0l-4.241,4.24c-4.24,4.464,0.447,16.294,10.937,26.782
			c10.489,10.489,22.319,15.398,26.782,10.937l4.241-4.24C209.752,146.652,209.752,143.975,208.19,142.411z"/>
	</g>
</g>
<g>
</g>
<g>
</g>
<g>
</g>
<g>
</g>
<g>
</g>
<g>
</g>
<g>
</g>
<g>
</g>
<g>
</g>
<g>
</g>
<g>
</g>
<g>
</g>
<g>
</g>
<g>
</g>
<g>
</g>
</svg>
