<?xml version="1.0" encoding="utf-8"?>
<!-- Generator: Adobe Illustrator 16.0.0, SVG Export Plug-In . SVG Version: 6.00 Build 0)  -->
<!DOCTYPE svg PUBLIC "-//W3C//DTD SVG 1.1//EN" "http://www.w3.org/Graphics/SVG/1.1/DTD/svg11.dtd">
<svg version="1.1" id="Capa_1" xmlns="http://www.w3.org/2000/svg" xmlns:xlink="http://www.w3.org/1999/xlink" x="0px" y="0px"
	 width="640px" height="200px" viewBox="0 0 640 200" enable-background="new 0 0 640 200" xml:space="preserve">
<path fill-rule="evenodd" clip-rule="evenodd" fill="#EE7F21" d="M6.535,107.26c1.078,0.75,3.094,1.516,4.324,2.141
	c1.467,0.746,2.897,1.445,4.401,2.165c8.314,4.022,18.091,8.641,26.153,12.782l-0.868,1.599c-0.949-0.286-3.327-1.515-4.297-2.021
	l-12.644-6.189c-1.796-0.798-15.925-7.96-17.017-8.206c-0.23,0.996-0.083,35.472-0.079,41.561c0.002,1.077-0.153,0.928,0.456,1.021
	c1.021-0.624,3.06-1.584,4.181-2.099c6.268-2.86,14.806-7.137,21.02-10.259l8.436-4.049l0.733,1.544
	c-0.459,0.501-33.218,16.37-34.773,17.139c-0.333,5.424-0.026,4.825-0.026,4.825c0,4.688-0.91,10.442,4.923,12.678
	c2.484,0.952,13.671,0.521,17.164,0.521H151.48c5.655,0,9.262-2.386,9.262-8.449c0.255-0.048,5.453,0.525,8.026,0.391
	c12.345-0.622,20.734-7.47,24.275-19.026c1.298-4.249,2.313-10.78,2.039-15.517h-3.749c-0.368,5.107-0.368,8.771-1.735,13.624
	c-2.185,7.784-6.757,13.602-14.703,16.036c-4.6,1.404-8.917,1.298-13.769,0.532l-0.399-0.279c-0.25-4.328,0.026-8.031,0.026-12.433
	V67.969c0-3.717,0.175-7.438-4.07-9.691c-3.167-1.682-8.952-0.592-12.908-0.934c-0.145-1.605,0.053-3.852-0.015-5.615
	c-0.278-7.339-1.993-16.469-8.575-20.505c-2.965-1.82-5.667-1.987-9.623-1.59c-7.246,0.729-12.064,3.953-14.796,8.339
	c-2.582,4.141-3.422,8.864-3.416,13.929c0,1.904,0.375,3.798,0.37,5.476H56.636c-0.272-1.842,0.231-6.205-0.513-11.058
	c-0.515-3.354-1.289-6.236-2.647-8.902c-3.354-6.588-8.016-8.481-15.16-7.777c-13.147,1.293-18.33,10.965-18.15,22.436
	c0.03,1.82,0.355,3.592,0.414,5.262c-4.048,0.443-9.486-1.394-12.618,3.282c-1.491,2.219-1.426,3.414-1.426,6.488V107.26z"/>
<path fill-rule="evenodd" clip-rule="evenodd" d="M113.452,56.571l26.05-0.002c0.055-3.814-1.935-9.832-3.427-12.755
	c-4.524-8.858-14.804-9.577-19.623-0.667C114.905,46.009,113.076,52.612,113.452,56.571z"/>
<path fill-rule="evenodd" clip-rule="evenodd" d="M26.268,56.518l26.068,0.054c-0.388-8.553-4.817-19.533-12.995-19.729
	c-5.195-0.123-8.28,2.923-10.075,6.371C27.609,46.393,26.041,52.311,26.268,56.518z"/>
<path fill-rule="evenodd" clip-rule="evenodd" d="M84.952,144.144c0.726-0.298,11.739-11.743,14.092-14.054
	c0.787-0.769,4.251-4.184,4.601-4.897H66.497c0.201,0.46,8.02,8.244,9.141,9.451c1.552,1.665,2.971,2.992,4.659,4.669
	L84.952,144.144z"/>
<path fill-rule="evenodd" clip-rule="evenodd" d="M65.021,102.443c-7.197,1.704-4.671,12.648,2.648,10.973
	c2.602-0.607,5.058-3.32,4.215-6.825C71.247,103.931,68.503,101.615,65.021,102.443z"/>
<path fill-rule="evenodd" clip-rule="evenodd" d="M102.479,102.42c-7.301,1.946-4.486,12.69,2.676,10.988
	c2.613-0.629,5.023-3.324,4.197-6.766C108.722,104.019,105.875,101.514,102.479,102.42z"/>
<path fill-rule="evenodd" clip-rule="evenodd" d="M6.588,109.529c1.092,0.246,15.221,7.408,17.017,8.206l12.644,6.189
	c0.97,0.507,3.348,1.735,4.297,2.021l0.868-1.599c-8.062-4.142-17.839-8.76-26.153-12.782c-1.503-0.72-2.934-1.419-4.401-2.165
	c-1.23-0.625-3.247-1.391-4.324-2.141c-0.737-0.136-0.515-0.144-0.842,0.508c-0.14,0.29-0.292,0.706-0.397,1.019L6.588,109.529z"/>
<path fill-rule="evenodd" clip-rule="evenodd" d="M6.964,152.111c-0.042,0.026-0.108,0.008-0.132,0.074l-0.766,0.356
	c-0.363,0.154-0.471,0.221-0.737,0.435l0.651,1.521l0.581-0.11c1.555-0.769,34.313-16.638,34.773-17.139l-0.733-1.544l-8.436,4.049
	c-6.214,3.122-14.752,7.398-21.02,10.259C10.024,150.527,7.985,151.487,6.964,152.111z"/>
<path fill-rule="evenodd" clip-rule="evenodd" d="M122.164,136.735c1.108,0.323,3.281,1.522,4.418,2.092l13.239,6.453
	c2.977,1.508,5.842,2.806,8.818,4.32l8.891,4.239l0.827-1.64c-1.313-0.423-3.324-1.556-4.499-2.125
	c-1.477-0.725-2.909-1.441-4.391-2.181l-17.666-8.589c-1.772-0.843-7.768-3.953-8.843-4.292L122.164,136.735z"/>
<path fill-rule="evenodd" clip-rule="evenodd" d="M122.235,123.576l0.721,1.76l35.345-17.219l-0.726-1.641
	C156.312,106.749,123.846,123.127,122.235,123.576z"/>
<g>
	<path fill="#4F2417" d="M255.589,131.549c-2.41,1.247-7.727,2.493-14.457,2.493c-17.78,0-28.581-11.134-28.581-28.165
		c0-18.445,12.795-29.579,29.91-29.579c6.73,0,11.549,1.413,13.625,2.493l-2.243,8.142c-2.659-1.163-6.314-2.16-10.967-2.16
		c-11.383,0-19.608,7.145-19.608,20.605c0,12.296,7.228,20.189,19.525,20.189c4.154,0,8.474-0.831,11.133-2.077L255.589,131.549z"/>
	<path fill="#4F2417" d="M276.113,117.342l-4.819,15.869h-10.552l17.946-55.999h13.044l18.195,55.999h-10.967l-5.068-15.869H276.113
		z M292.148,109.615l-4.403-13.792c-1.08-3.407-1.994-7.229-2.825-10.469h-0.167c-0.831,3.24-1.662,7.145-2.659,10.469l-4.32,13.792
		H292.148z"/>
	<path fill="#4F2417" d="M321.729,85.77h-15.952v-8.558h42.29v8.558h-16.118v47.441h-10.22V85.77z"/>
	<path fill="#4F2417" d="M371.832,77.212h10.219v47.441h23.015v8.558h-33.233V77.212z"/>
	<path fill="#4F2417" d="M459.24,104.63c0,18.777-11.383,29.495-26.836,29.495c-15.787,0-25.756-12.047-25.756-28.498
		c0-17.198,10.801-29.329,26.586-29.329C449.602,76.298,459.24,88.678,459.24,104.63z M417.449,105.461
		c0,11.383,5.732,20.438,15.536,20.438c9.888,0,15.454-9.14,15.454-20.854c0-10.551-5.234-20.521-15.454-20.521
		C422.85,84.523,417.449,93.912,417.449,105.461z"/>
	<path fill="#4F2417" d="M480.598,133.211l-18.113-55.999h11.134l7.644,25.423c2.16,7.063,3.988,13.626,5.484,20.438h0.166
		c1.495-6.646,3.489-13.459,5.732-20.271l8.143-25.59h10.884l-19.358,55.999H480.598z"/>
	<path fill="#4F2417" d="M549.063,108.369h-21.104v16.45h23.596v8.392H517.74V77.212h32.568v8.391h-22.35v14.457h21.104V108.369z"/>
	<path fill="#4F2417" d="M560.531,77.96c3.822-0.665,9.555-1.163,15.453-1.163c8.06,0,13.543,1.329,17.282,4.486
		c3.073,2.576,4.819,6.481,4.819,11.216c0,7.229-4.902,12.13-10.137,14.042v0.249c3.988,1.495,6.397,5.4,7.81,10.802
		c1.745,6.979,3.24,13.459,4.403,15.619h-10.551c-0.832-1.662-2.16-6.231-3.739-13.211c-1.579-7.311-4.237-9.637-10.054-9.803h-5.15
		v23.014h-10.137V77.96z M570.668,102.719h6.064c6.896,0,11.217-3.655,11.217-9.222c0-6.148-4.32-8.973-10.967-8.973
		c-3.24,0-5.318,0.25-6.314,0.499V102.719z"/>
</g>
<g>
</g>
<g>
</g>
<g>
</g>
<g>
</g>
<g>
</g>
<g>
</g>
<g>
</g>
<g>
</g>
<g>
</g>
<g>
</g>
<g>
</g>
<g>
</g>
<g>
</g>
<g>
</g>
<g>
</g>
</svg>
