<?xml version="1.0" encoding="utf-8"?>
<!-- Generator: Adobe Illustrator 16.0.0, SVG Export Plug-In . SVG Version: 6.00 Build 0)  -->
<!DOCTYPE svg PUBLIC "-//W3C//DTD SVG 1.1//EN" "http://www.w3.org/Graphics/SVG/1.1/DTD/svg11.dtd">
<svg version="1.1" id="Capa_1" xmlns="http://www.w3.org/2000/svg" xmlns:xlink="http://www.w3.org/1999/xlink" x="0px" y="0px"
	 width="160px" height="40px" viewBox="0 0 160 40" enable-background="new 0 0 160 40" xml:space="preserve">
<path fill-rule="evenodd" clip-rule="evenodd" fill="#EE7F21" d="M1.329,21.663c0.286,0.199,0.822,0.402,1.148,0.568
	c0.39,0.198,0.77,0.384,1.169,0.575c2.208,1.068,4.805,2.295,6.946,3.395l-0.23,0.425c-0.252-0.076-0.883-0.402-1.141-0.537
	l-3.358-1.644c-0.477-0.212-4.229-2.114-4.52-2.18c-0.061,0.265-0.022,9.421-0.021,11.038c0,0.286-0.041,0.246,0.121,0.271
	c0.271-0.166,0.813-0.421,1.11-0.558c1.665-0.76,3.932-1.896,5.583-2.725l2.24-1.075l0.195,0.41
	c-0.122,0.133-8.822,4.348-9.235,4.552c-0.088,1.44-0.007,1.281-0.007,1.281c0,1.245-0.242,2.773,1.308,3.367
	c0.66,0.253,3.631,0.139,4.559,0.139h32.629c1.502,0,2.46-0.634,2.46-2.244c0.068-0.013,1.448,0.14,2.131,0.104
	c3.279-0.165,5.507-1.983,6.447-5.053c0.345-1.129,0.614-2.863,0.542-4.121h-0.996c-0.098,1.356-0.098,2.329-0.461,3.618
	c-0.58,2.067-1.794,3.612-3.905,4.259c-1.222,0.373-2.368,0.345-3.657,0.142l-0.106-0.074c-0.066-1.149,0.007-2.133,0.007-3.302
	V11.228c0-0.987,0.046-1.976-1.081-2.574c-0.841-0.447-2.377-0.157-3.428-0.248c-0.039-0.426,0.014-1.023-0.004-1.491
	c-0.074-1.949-0.529-4.374-2.277-5.446c-0.788-0.483-1.505-0.528-2.556-0.422c-1.924,0.193-3.204,1.05-3.93,2.215
	c-0.686,1.1-0.909,2.354-0.907,3.699c0,0.506,0.1,1.009,0.098,1.455H14.635c-0.072-0.489,0.062-1.648-0.136-2.937
	c-0.137-0.891-0.342-1.656-0.703-2.364c-0.891-1.75-2.129-2.252-4.026-2.065c-3.492,0.343-4.868,2.912-4.82,5.958
	c0.008,0.483,0.094,0.954,0.11,1.397c-1.075,0.118-2.52-0.37-3.351,0.872C1.312,9.866,1.329,10.183,1.329,11V21.663z"/>
<path fill-rule="evenodd" clip-rule="evenodd" d="M29.725,8.201l6.918,0c0.015-1.013-0.514-2.611-0.91-3.388
	c-1.202-2.353-3.932-2.543-5.211-0.177C30.111,5.396,29.625,7.149,29.725,8.201z"/>
<path fill-rule="evenodd" clip-rule="evenodd" d="M6.57,8.187l6.923,0.014c-0.103-2.271-1.279-5.188-3.451-5.24
	c-1.38-0.033-2.199,0.776-2.676,1.692C6.926,5.498,6.51,7.069,6.57,8.187z"/>
<path fill-rule="evenodd" clip-rule="evenodd" d="M22.156,31.459c0.193-0.079,3.118-3.119,3.743-3.732
	c0.209-0.204,1.129-1.111,1.222-1.301h-9.866c0.053,0.122,2.13,2.189,2.428,2.51c0.412,0.442,0.789,0.795,1.237,1.24L22.156,31.459z
	"/>
<path fill-rule="evenodd" clip-rule="evenodd" d="M16.862,20.384c-1.912,0.453-1.241,3.359,0.703,2.914
	c0.691-0.161,1.343-0.882,1.12-1.813C18.516,20.779,17.787,20.164,16.862,20.384z"/>
<path fill-rule="evenodd" clip-rule="evenodd" d="M26.811,20.377c-1.939,0.517-1.191,3.371,0.711,2.918
	c0.694-0.167,1.334-0.883,1.115-1.797C28.469,20.802,27.712,20.137,26.811,20.377z"/>
<path fill-rule="evenodd" clip-rule="evenodd" d="M1.343,22.266c0.29,0.065,4.042,1.968,4.52,2.18l3.358,1.644
	c0.258,0.135,0.889,0.461,1.141,0.537l0.23-0.425c-2.141-1.1-4.738-2.326-6.946-3.395c-0.399-0.191-0.779-0.377-1.169-0.575
	c-0.327-0.166-0.862-0.369-1.148-0.568c-0.196-0.036-0.137-0.038-0.224,0.135C1.068,21.875,1.028,21.985,1,22.068L1.343,22.266z"/>
<path fill-rule="evenodd" clip-rule="evenodd" d="M1.443,33.575c-0.011,0.007-0.029,0.002-0.035,0.02l-0.204,0.095
	c-0.096,0.041-0.125,0.059-0.196,0.115l0.173,0.404l0.154-0.029c0.413-0.204,9.113-4.419,9.235-4.552l-0.195-0.41l-2.24,1.075
	c-1.65,0.829-3.918,1.965-5.583,2.725C2.256,33.154,1.714,33.409,1.443,33.575z"/>
<path fill-rule="evenodd" clip-rule="evenodd" d="M32.039,29.491c0.294,0.086,0.872,0.404,1.173,0.556l3.516,1.714
	c0.791,0.4,1.552,0.745,2.342,1.147l2.361,1.126l0.22-0.436c-0.349-0.112-0.883-0.413-1.195-0.564
	c-0.392-0.192-0.772-0.383-1.166-0.579l-4.692-2.281c-0.471-0.224-2.063-1.05-2.349-1.14L32.039,29.491z"/>
<path fill-rule="evenodd" clip-rule="evenodd" d="M32.058,25.996l0.191,0.468l9.387-4.573l-0.193-0.436
	C41.108,21.527,32.485,25.877,32.058,25.996z"/>
<g>
	<path fill="#EE7F21" d="M67.473,28.113c-0.64,0.331-2.052,0.662-3.839,0.662c-4.722,0-7.59-2.957-7.59-7.479
		c0-4.898,3.398-7.855,7.943-7.855c1.787,0,3.067,0.375,3.619,0.662l-0.596,2.163c-0.706-0.309-1.677-0.574-2.913-0.574
		c-3.023,0-5.207,1.897-5.207,5.472c0,3.266,1.919,5.361,5.185,5.361c1.103,0,2.25-0.221,2.957-0.551L67.473,28.113z"/>
	<path fill="#EE7F21" d="M72.925,24.341l-1.28,4.214h-2.802l4.766-14.871h3.464l4.832,14.871h-2.912l-1.346-4.214H72.925z
		 M77.183,22.288l-1.169-3.662c-0.287-0.905-0.53-1.92-0.75-2.78h-0.044c-0.221,0.86-0.441,1.897-0.706,2.78l-1.147,3.662H77.183z"
		/>
	<path fill="#EE7F21" d="M85.04,15.956h-4.236v-2.272h11.23v2.272h-4.28v12.599H85.04V15.956z"/>
	<path fill="#EE7F21" d="M98.347,13.684h2.714v12.599h6.112v2.272h-8.826V13.684z"/>
	<path fill="#EE7F21" d="M121.56,20.965c0,4.986-3.022,7.833-7.127,7.833c-4.191,0-6.84-3.2-6.84-7.568
		c0-4.567,2.869-7.789,7.061-7.789C119,13.441,121.56,16.729,121.56,20.965z M110.462,21.186c0,3.022,1.522,5.428,4.126,5.428
		c2.625,0,4.104-2.428,4.104-5.538c0-2.802-1.39-5.45-4.104-5.45C111.896,15.625,110.462,18.118,110.462,21.186z"/>
	<path fill="#EE7F21" d="M127.233,28.555l-4.811-14.871h2.957l2.029,6.751c0.574,1.875,1.06,3.619,1.457,5.428h0.044
		c0.396-1.766,0.927-3.575,1.522-5.384l2.162-6.795h2.891l-5.142,14.871H127.233z"/>
	<path fill="#EE7F21" d="M145.416,21.957h-5.604v4.369h6.267v2.229h-8.98V13.684h8.649v2.229h-5.936v3.839h5.604V21.957z"/>
	<path fill="#EE7F21" d="M148.463,13.882c1.015-0.176,2.537-0.309,4.104-0.309c2.14,0,3.596,0.353,4.589,1.191
		c0.816,0.684,1.28,1.721,1.28,2.979c0,1.919-1.302,3.222-2.692,3.729v0.066c1.06,0.397,1.699,1.435,2.074,2.868
		c0.463,1.854,0.86,3.575,1.169,4.148h-2.802c-0.221-0.441-0.573-1.655-0.993-3.508c-0.419-1.942-1.125-2.56-2.67-2.604h-1.367
		v6.111h-2.692V13.882z M151.155,20.457h1.61c1.831,0,2.979-0.971,2.979-2.449c0-1.633-1.147-2.383-2.912-2.383
		c-0.86,0-1.412,0.066-1.677,0.132V20.457z"/>
</g>
<g>
</g>
<g>
</g>
<g>
</g>
<g>
</g>
<g>
</g>
<g>
</g>
<g>
</g>
<g>
</g>
<g>
</g>
<g>
</g>
<g>
</g>
<g>
</g>
<g>
</g>
<g>
</g>
<g>
</g>
</svg>
